<svg width="625.474" height="625.474" viewBox="0 0 165.49 165.49" xmlns="http://www.w3.org/2000/svg"><g fill="#231f20"><path d="M82.746 151.9c-38.132 0-69.155-31.023-69.155-69.155 0-38.132 31.022-69.156 69.155-69.156 38.132 0 69.152 31.024 69.152 69.156 0 38.132-31.022 69.155-69.152 69.155m0-151.9C37.047 0 .002 37.046.002 82.745c0 45.699 37.045 82.744 82.744 82.744 45.7 0 82.741-37.042 82.741-82.744 0-45.7-37.045-82.745-82.74-82.745"/><path d="M125.112 90.105l-11-7.358 11-7.358zm-37.97 31.19v-20.508l19.062-12.749 15.388 10.292zM82.746 93.15L67.194 82.747l15.552-10.402 15.55 10.402zm-4.398 28.146L43.898 98.33l15.388-10.292 19.062 12.75zm-37.97-45.907l11 7.358-11 7.358zm37.97-31.19v20.508L59.286 77.457 43.897 67.163zm8.794 0l34.45 22.965-15.388 10.294-19.062-12.751zm46.726 22.386c-.01-.064-.026-.126-.036-.19a4.304 4.304 0 00-.077-.37c-.02-.072-.046-.142-.069-.212-.035-.108-.07-.215-.113-.32a4.257 4.257 0 00-.098-.215 3.27 3.27 0 00-.15-.291c-.04-.07-.083-.138-.125-.205a4.902 4.902 0 00-.337-.458 4.335 4.335 0 00-.218-.236c-.058-.06-.115-.119-.175-.173a5.022 5.022 0 00-.25-.21c-.065-.05-.13-.102-.198-.15-.026-.016-.049-.038-.073-.054L85.184 32.323a4.396 4.396 0 00-4.878 0L33.542 63.5c-.024.016-.047.038-.073.054-.069.048-.133.1-.198.15-.086.068-.17.138-.248.21-.062.054-.119.114-.177.173a3.814 3.814 0 00-.37.428 4.02 4.02 0 00-.184.266 3.658 3.658 0 00-.276.496c-.034.07-.069.142-.098.215-.043.105-.078.212-.114.32-.022.07-.048.14-.068.212-.032.121-.054.245-.077.37-.01.064-.027.126-.035.19-.026.189-.04.38-.04.574v31.176c0 .194.014.385.04.576.008.062.025.127.035.188.023.124.045.248.077.37.02.072.046.142.068.212.036.107.07.215.114.323.03.073.064.143.098.213.047.099.095.196.15.293.04.067.081.134.126.202a4.02 4.02 0 00.554.694 3.761 3.761 0 00.425.382c.065.052.13.103.198.15.026.017.049.039.073.054l46.764 31.177a4.396 4.396 0 004.878 0l46.765-31.177c.024-.015.047-.037.073-.053a4.903 4.903 0 00.448-.361c.06-.054.117-.113.175-.172a3.287 3.287 0 00.37-.428c.066-.086.126-.175.185-.266.042-.068.085-.135.125-.202.056-.097.104-.194.15-.293.033-.07.068-.14.098-.213.043-.108.078-.216.113-.323.023-.07.05-.14.069-.213.032-.121.055-.245.077-.369.01-.061.026-.126.036-.188a4.55 4.55 0 00.04-.576V67.158a4.47 4.47 0 00-.04-.574"/></g></svg>