<svg width="43.438" height="42.365" viewBox="0 0 11.493 11.209" xmlns="http://www.w3.org/2000/svg"><path d="M5.746 0A5.747 5.747 0 003.93 11.2c.287.052.392-.125.392-.278 0-.136-.005-.497-.008-.977-1.598.347-1.935-.77-1.935-.77-.262-.664-.638-.84-.638-.84-.522-.357.039-.35.039-.35.577.04.88.592.88.592.513.878 1.345.625 1.673.478.052-.372.2-.625.365-.769-1.276-.145-2.618-.638-2.618-2.84 0-.627.224-1.14.592-1.542-.06-.145-.257-.73.056-1.52 0 0 .482-.155 1.58.589.458-.128.95-.192 1.439-.194.488.002.98.066 1.438.194 1.097-.744 1.579-.59 1.579-.59.314.792.116 1.376.057 1.521.368.402.591.915.591 1.542 0 2.208-1.344 2.694-2.624 2.836.206.177.39.528.39 1.064 0 .768-.007 1.388-.007 1.576 0 .154.104.333.395.277A5.749 5.749 0 005.746 0" fill="#1b1817" fill-rule="evenodd"/></svg>