<?xml version="1.0" encoding="UTF-8"?>
<!-- Generator: Adobe Illustrator 15.0.1, SVG Export Plug-In . SVG Version: 6.00 Build 0)  -->
<svg width="256px" height="256px" enable-background="new 0 0 256 256" version="1.1" viewBox="0 0 256 256" xml:space="preserve" xmlns="http://www.w3.org/2000/svg" xmlns:cc="http://creativecommons.org/ns#" xmlns:dc="http://purl.org/dc/elements/1.1/" xmlns:rdf="http://www.w3.org/1999/02/22-rdf-syntax-ns#"><metadata><rdf:RDF><cc:Work rdf:about=""><dc:format>image/svg+xml</dc:format><dc:type rdf:resource="http://purl.org/dc/dcmitype/StillImage"/><dc:title/></cc:Work></rdf:RDF></metadata><g transform="translate(-373.64 -318.34)"><path transform="translate(373.64,318.34)" d="m136.47 116.56c-0.06608 0.10218-0.17366 0.22528-0.23828 0.32617h0.23828v-0.32617z"/><path transform="translate(373.64,318.34)" d="m45.99 10.51c-19.599 0-35.486 15.887-35.486 35.486v164.02c0 19.599 15.887 35.486 35.486 35.486h164.03c19.599 0 35.488-15.888 35.488-35.486v-164.01c1e-3 -19.599-15.888-35.488-35.486-35.488l-0.00195-0.009765h-164.03zm18.197 39.746c1.5096 0 2.9468 0.12401 4.3066 0.36133 1.3598 0.23732 2.6419 0.58764 3.8418 1.041 1.1999 0.45337 2.3178 1.0081 3.3477 1.6562 1.0299 0.64817 1.9725 1.3892 2.8223 2.2109 0.84981 0.82169 1.606 1.7253 2.2656 2.6992 0.65963 0.97396 1.2223 2.0181 1.6816 3.123s0.81547 2.2697 1.0645 3.4844 0.3914 2.48 0.41992 3.7832c0 1.2749-0.12163 2.5176-0.35547 3.7168-0.23384 1.1992-0.5813 2.3554-1.0371 3.4551-0.45581 1.0997-1.0196 2.143-1.6855 3.1191s-1.4327 1.8841-2.2969 2.7129-1.8245 1.5789-2.875 2.2363c-1.0505 0.65744-2.1929 1.2233-3.418 1.6855-1.2251 0.46221-2.5342 0.81944-3.9219 1.0625-1.3877 0.24306-2.8541 0.37109-4.3926 0.37109h-0.23242c-1.4821 0-2.8979-0.12803-4.2422-0.37109-1.3443-0.24306-2.6177-0.60029-3.8105-1.0625-1.1929-0.46221-2.3061-1.0281-3.334-1.6855-1.0279-0.65744-1.9689-1.4076-2.8184-2.2363-0.84942-0.82876-1.6063-1.7367-2.2637-2.7129-0.65739-0.97617-1.2162-2.0195-1.668-3.1191-0.45181-1.0997-0.79662-2.2558-1.0293-3.4551-0.23268-1.1992-0.35352-2.4419-0.35352-3.7168 0-1.3032 0.12375-2.5685 0.36328-3.7832 0.23953-1.2147 0.59596-2.3794 1.0605-3.4844s1.0377-2.1491 1.7129-3.123 1.451-1.8775 2.3223-2.6992 1.8377-1.5628 2.8906-2.2109 2.1921-1.2029 3.4121-1.6562 2.5199-0.8037 3.8926-1.041c1.3727-0.23732 2.8192-0.36133 4.3301-0.36133zm104.12 48.734c2.9052 0 5.7192 0.23777 8.4199 0.7168s5.2894 1.1991 7.7402 2.166c2.4508 0.96691 4.7643 2.1809 6.9199 3.6445 2.1556 1.4636 4.1536 3.1772 5.9688 5.1465 1.8152 1.9692 3.4476 4.194 4.877 6.6777 1.4293 2.4837 2.6541 5.2254 3.6523 8.2324s1.7692 6.2792 2.291 9.8184c0.52176 3.5392 0.79492 7.3456 0.79492 11.426v60.936h-35.318v-56.854c0-1.7854-0.07947-3.4993-0.24414-5.1328-0.16468-1.6335-0.41455-3.1872-0.75391-4.6484s-0.7689-2.831-1.293-4.0996c-0.52407-1.2686-1.1425-2.4366-1.8613-3.4922-0.71879-1.0556-1.5374-1.9981-2.4609-2.8203-0.92354-0.82224-1.9516-1.5233-3.0898-2.0918-1.1383-0.56852-2.3869-1.0044-3.75-1.2988s-2.8396-0.44727-4.4375-0.44727c-1.2194 0-2.379 0.10287-3.4766 0.29492-1.0976 0.19206-2.1348 0.4725-3.1133 0.83008s-1.8979 0.79248-2.7598 1.2891-1.6661 1.055-2.4141 1.6641c-1.4959 1.2181-2.7664 2.6357-3.8223 4.1445-1.0559 1.5088-1.8965 3.11-2.5332 4.6973-0.46711 1.1344-0.75925 2.4943-0.93359 3.9688-0.17434 1.4745-0.23047 3.0635-0.23047 4.6524v59.344h-35.326c1e-5 -0.00191 0.1172-24.074 0.17578-49.395 0.05858-25.322 0.05854-51.89-0.17578-56.875h35.326v15.08c1.1218-1.7344 2.4136-3.6252 4.0527-5.5312 0.86785-1.0092 1.8209-2.0161 2.873-2.9941s2.2032-1.9262 3.4668-2.8184 2.6403-1.7272 4.1426-2.4785c1.5023-0.75135 3.1302-1.4189 4.8984-1.9746 1.7682-0.55573 3.677-1.0014 5.7383-1.3066 2.0613-0.30528 4.2747-0.4707 6.6562-0.4707zm-122.01 2.4922h35.32v106.27h-35.32v-106.27z"/></g></svg>
