<svg width="256" height="256" viewBox="0 0 256 256" xmlns="http://www.w3.org/2000/svg"><path d="M136.47 116.56c-.066.102-.174.225-.238.326h.238v-.326z"/><path d="M45.99 10.51c-19.599 0-35.486 15.887-35.486 35.486v164.02c0 19.599 15.887 35.486 35.486 35.486h164.03c19.599 0 35.488-15.888 35.488-35.486V46.006c.001-19.599-15.888-35.488-35.486-35.488l-.002-.01H45.99zm18.197 39.746c1.51 0 2.947.124 4.307.361 1.36.238 2.642.588 3.841 1.041a18.65 18.65 0 013.348 1.657c1.03.648 1.973 1.389 2.822 2.21.85.822 1.606 1.726 2.266 2.7.66.974 1.222 2.018 1.682 3.123s.815 2.27 1.064 3.484.392 2.48.42 3.783c0 1.275-.122 2.518-.355 3.717a18.029 18.029 0 01-1.038 3.455c-.455 1.1-1.02 2.143-1.685 3.12s-1.433 1.883-2.297 2.712-1.824 1.579-2.875 2.236a19.23 19.23 0 01-3.418 1.686c-1.225.462-2.534.82-3.922 1.062a25.448 25.448 0 01-4.392.372h-.233c-1.482 0-2.898-.129-4.242-.372a20.758 20.758 0 01-3.81-1.062 18.755 18.755 0 01-3.335-1.686 17.653 17.653 0 01-2.818-2.236 17.248 17.248 0 01-2.264-2.713 17.457 17.457 0 01-1.668-3.119 18.213 18.213 0 01-1.029-3.455 19.5 19.5 0 01-.353-3.717c0-1.303.123-2.568.363-3.783.24-1.215.596-2.38 1.06-3.484a17.117 17.117 0 014.035-5.823c.872-.821 1.838-1.562 2.891-2.21s2.192-1.203 3.412-1.657 2.52-.803 3.893-1.04a25.414 25.414 0 014.33-.362zm104.12 48.734c2.905 0 5.72.238 8.42.717s5.29 1.199 7.74 2.166c2.45.967 4.764 2.18 6.92 3.644a34.318 34.318 0 015.969 5.147 37.165 37.165 0 014.877 6.678c1.43 2.483 2.654 5.225 3.652 8.232s1.77 6.28 2.291 9.818c.522 3.54.795 7.346.795 11.426v60.936h-35.318V150.9c0-1.785-.08-3.499-.244-5.132-.165-1.634-.415-3.188-.754-4.649s-.769-2.83-1.293-4.1a19.234 19.234 0 00-1.861-3.492 15.234 15.234 0 00-2.461-2.82 14.105 14.105 0 00-3.09-2.092c-1.138-.568-2.387-1.004-3.75-1.299s-2.84-.447-4.438-.447c-1.219 0-2.379.103-3.476.295-1.098.192-2.135.473-3.113.83s-1.898.793-2.76 1.29-1.666 1.054-2.414 1.663a20.45 20.45 0 00-3.823 4.145 23.44 23.44 0 00-2.533 4.697c-.467 1.135-.76 2.494-.933 3.969-.175 1.474-.23 3.063-.23 4.652v59.344h-35.327c0-.002.117-24.074.176-49.395.058-25.322.058-51.89-.176-56.875h35.326v15.08c1.122-1.734 2.414-3.625 4.053-5.53.868-1.01 1.82-2.017 2.873-2.995s2.203-1.926 3.467-2.818 2.64-1.728 4.142-2.479a33.136 33.136 0 014.899-1.974 37.346 37.346 0 015.738-1.307 45.385 45.385 0 016.656-.47zm-122.01 2.492h35.32v106.27h-35.32v-106.27z"/></svg>