<?xml version="1.0" encoding="UTF-8" standalone="no"?>
<svg id="svg2" xmlns:rdf="http://www.w3.org/1999/02/22-rdf-syntax-ns#" xmlns="http://www.w3.org/2000/svg" height="27.46mm" width="36.238mm" version="1.1" xmlns:cc="http://creativecommons.org/ns#" xmlns:dc="http://purl.org/dc/elements/1.1/" viewBox="0 0 128.40114 97.299729">
 <g id="layer1" transform="translate(-20.445 -13.216)">
  <path id="path8068" d="m34.345 31.098h4.0406c0.45493 0 2.723 0.15371 3.0305 0 0.42592-0.21296 0.61394-0.74601 1.0102-1.0102 2.2357-1.4905 2.2929-0.40894 4.0406-3.0305 0.18678-0.28017-0.15058-0.70898 0-1.0102 1.2482-2.4965 1.0102 0.34868 1.0102-2.0203v-4.0406c0-0.33672 0.31944-0.90367 0-1.0102-0.95832-0.31944-2.0505 0.245-3.0305 0-0.46197-0.11549-0.58424-0.79719-1.0102-1.0102-0.30742-0.15371-2.5755 0-3.0305 0h-8.0812-3.0305c-0.33672 0-0.92849-0.32666-1.0102 0-0.32666 1.3067 0 2.6937 0 4.0406 0 0.33672 0.15058 0.70898 0 1.0102-1.8145 3.629-0.74453-3.614-2.0203 4.0406-0.16607 0.99641 0 2.0203 0 3.0305v8.0812c0 0.33672-0.31944 0.90367 0 1.0102 0.95832 0.31944 2.0203 0 3.0305 0 0.33672 0 0.70898-0.15058 1.0102 0 0.42592 0.21296 0.58424 0.79719 1.0102 1.0102 0.3653 0.18265 4.3482 0 5.0508 0 0.3135 0 2.8911 0.209 3.0305 0 0.59064-0.88596 0.41951-2.1445 1.0102-3.0305 0.18678-0.28017 0.77206 0.2381 1.0102 0 0-2.6937-0.33672 0.33672 1.0102-1.0102 0.50508-0.50508-0.50508-2.5254 0-3.0305 0.2381-0.2381 0.67344 0 1.0102 0h3.0305 15.152 2.0203c0.33672 0 0.77206-0.2381 1.0102 0 5.9151 5.9151-0.5993 3.2922 9.0914 6.0609 10.512 3.0035 5.0147 1.205 14.142 3.0305 4.3256 0.86511 4.3868 1.4322 9.0914 2.0203 1.0024 0.12529 2.0399-0.19811 3.0305 0 0.7383 0.14766 1.2776 0.88637 2.0203 1.0102 1.6607 0.27678 3.3672 0 5.0508 0h11.112 6.0609c0.33672 0 0.82338 0.28017 1.0102 0 0.59064-0.88596 0.46232-2.1174 1.0102-3.0305 0.48999-0.81666 1.3469-1.3469 2.0203-2.0203 1.5459-1.5459 3.1911-2.9269 4.0406-5.0508 0.25011-0.62527 0-1.3469 0-2.0203v-6.0609c0-0.32978 0.21696-4.8338 0-5.0508-0.75292-0.75292-2.1174-0.46232-3.0304-1.0102-0.81666-0.49-1.2584-1.4489-2.0203-2.0203-0.60234-0.45175-1.418-0.5584-2.0203-1.0102-0.76191-0.57143-1.1168-1.7191-2.0203-2.0203h-4.0406c0-0.33672 0.30117-0.85957 0-1.0102-0.90351-0.45175-2.0203 0-3.0305 0h-1.0102c-0.33672 0-0.90367-0.31944-1.0102 0-0.31944 0.95831 0 2.0203 0 3.0305 0 0.33672 0.15058 0.70898 0 1.0102-0.21296 0.42592-0.8333 0.56802-1.0102 1.0102-1.5496 3.874-1.0102 8.0622-1.0102 12.122v1.0102c0 0.67344-0.53875 1.6162 0 2.0203 1.1107 0.83299 2.7645 0.46326 4.0406 1.0102 1.1159 0.47824 2.0978 1.2431 3.0305 2.0203 1.0975 0.91455 1.7174 2.4677 3.0305 3.0305 1.238 0.53056 2.6937 0 4.0406 0h5.0508 2.0203c0.33671 0 0.77205 0.2381 1.0102 0 0.85846-0.85846 1.2619-2.0824 2.0203-3.0305 2.6418-3.3022 2.2954-0.82521 4.0406-6.0609 1.3278-3.9835 1.0102-8.0246 1.0102-12.122v-3.0305c0-0.33672 0.32666-0.92849 0-1.0102-1.3067-0.32666-2.7199 0.26414-4.0406 0-0.46695-0.09339-0.61394-0.74601-1.0102-1.0102-0.62647-0.41765-1.282-0.86249-2.0203-1.0102-1.3385-0.26771-3.5338 0-5.0508 0-0.67344 0-1.5441-0.47619-2.0203 0-0.75292 0.75292-0.53396 2.0781-1.0102 3.0305-1.0859 2.1718-3.188 3.7874-4.0406 6.0609-0.60286 1.6076-0.82055 3.3443-1.0102 5.0508-0.14874 1.3386 0 2.6937 0 4.0406v6.0609 3.0305c0 0.33672-0.31944 0.90367 0 1.0102 0.95831 0.31944 2.0203 0 3.0304 0h8.0812c0.23312 0 2.9916 0.11656 3.0305 0 0.31944-0.95831-0.31944-2.0721 0-3.0305 0.21296-0.63888 1.5441 0.47619 2.0203 0 0.23809-0.2381-0.2381-0.77206 0-1.0102 0.0973-0.09731 3.0258-0.0139 3.0304 0 0.17101 0.51303 0 4.8743 0 6.0609v12.122 4.0406c0 0.33672 0.31944 0.90367 0 1.0102-0.95831 0.31944-2.0721-0.31944-3.0304 0-0.31944 0.10648 0.23809 0.77206 0 1.0102-0.2381 0.2381-0.77206-0.2381-1.0102 0-0.20651 0.20651 0.20026 2.6299 0 3.0305-0.21296 0.42592-0.79719 0.58424-1.0102 1.0102-0.47619 0.95238-0.34498 2.199-1.0102 3.0305-0.75841 0.94802-2.172 1.1618-3.0305 2.0203-0.5324 0.5324-0.5398 1.4324-1.0102 2.0203-0.89242 1.1155-2.3217 1.7901-3.0305 3.0305-0.6888 1.2054-0.24005 2.8855-1.0102 4.0406-0.67344 1.0102-2.272 1.0723-3.0305 2.0203-0.10163 0.12704-1.8489 5.7181-2.0203 6.0609-0.54295 1.0859-1.3957 1.9894-2.0203 3.0305-0.77475 1.2913-1.1168 2.8359-2.0203 4.0406-0.57143 0.7619-1.3469 1.3469-2.0203 2.0203-0.67343 0.67344-1.3469 1.3469-2.0203 2.0203l-2.0203 2.0203c-0.67344 0.67343-1.2279 1.492-2.0203 2.0203-2.3432 1.5621-7.2537 3.6846-10.102 4.0406h-4.0406c-0.67344 0.33672-1.2776 0.88638-2.0203 1.0102-1.9928 0.33213-4.0406 0-6.0609 0-1.0102 0-2.0399-0.19811-3.0305 0-0.7383 0.14766-1.282 0.86249-2.0203 1.0102-1.3207 0.26414-2.6937 0-4.0406 0h-7.0711c-0.45481 0-6.8771 0.14546-7.0711 0-0.97124-0.72843-1.0723-2.272-2.0203-3.0305-0.83146-0.66517-2.0781-0.53396-3.0305-1.0102-1.0859-0.54294-1.9446-1.4774-3.0305-2.0203-1.6218-0.81092-3.4657-1.1397-5.0508-2.0203-4.1181-2.2878-3.2843-3.1574-7.0711-5.0508-0.95238-0.47619-2.1174-0.46232-3.0305-1.0102-0.81666-0.49-1.3469-1.3469-2.0203-2.0203-0.33672-0.33672-0.79719-0.58424-1.0102-1.0102-0.15058-0.30117 0.2381-0.77206 0-1.0102-0.2381-0.2381-0.77206 0.2381-1.0102 0-0.2381-0.2381 0-0.67344 0-1.0102-0.33672 0-0.70898 0.15058-1.0102 0-0.42592-0.21296-0.67344-0.67344-1.0102-1.0102-0.33672-0.33672-0.74601-0.61394-1.0102-1.0102-0.41765-0.62647-0.5398-1.4324-1.0102-2.0203-0.89242-1.1155-2.138-1.9149-3.0305-3.0305-2.3232-2.904 0.41141-1.4032-2.0203-5.0508-0.79243-1.1886-2.3916-1.7527-3.0305-3.0305-3.3279-6.6557 3.384-0.43777-2.0203-4.0406-0.39621-0.26414-0.79719-1.4361-1.0102-1.0102-0.60234 1.2047 0 2.6937 0 4.0406 0 0.29475-0.19316 2.9146 0 3.0305 1.5549 0.93292 3.4764 1.1207 5.0508 2.0203 1.3229 0.75593 4.7862 5.598 5.0508 6.0609 0.52829 0.9245 0.46232 2.1174 1.0102 3.0305 0.49 0.81666 1.3469 1.3469 2.0203 2.0203l2.0203 2.0203c0.33672 0.33672 0.58423 0.79719 1.0102 1.0102 0.60234 0.30117 1.5441-0.47619 2.0203 0 0.2381 0.2381-0.2381 0.77206 0 1.0102 0.5324 0.5324 1.3469 0.67344 2.0203 1.0102 9.2052 4.6026 3.8974 2.3814 16.162 6.0609 8.698 2.6094 10.535 3.4274 19.193 5.0508 5.1556 0.96668 8.1144 0.9053 13.132 2.0203 1.0394 0.23098 1.9802 0.8351 3.0305 1.0102 1.2337 0.20562 4.5903 0 6.0609 0h1.0102c0.33672 0 0.82338 0.28017 1.0102 0 0.59065-0.88596 0.34499-2.199 1.0102-3.0305 1.6881-2.1101 3.8331-2.0757 6.0609-3.0305 1.3841-0.59318 2.5797-1.6551 4.0406-2.0203 1.3067-0.32666 2.6937 0 4.0406 0h2.0203c0.67343 0 1.3814 0.21296 2.0203 0 0.45176-0.15059 0.5584-0.85957 1.0102-1.0102 0.63887-0.21296 1.3814 0.21296 2.0203 0 0.45175-0.15059 0.58424-0.7972 1.0102-1.0102 0.30117-0.15058 0.77206 0.2381 1.0102 0 0.47619-0.47619-0.47619-1.5441 0-2.0203 0.23809-0.2381 0.77205 0.2381 1.0102 0 0.23809-0.2381-0.2381-0.77206 0-1.0102 0.23809-0.2381 0.70898 0.15058 1.0102 0 0.42592-0.21296 0.67344-0.67344 1.0102-1.0102 0.67344-0.67344 1.5944-1.1685 2.0203-2.0203 1.5768-3.1536-1.5912-1.0795 1.0102-3.0305 0.97124-0.72843 2.272-1.0723 3.0305-2.0203 0.66517-0.83146 0.59071-2.0518 1.0102-3.0305 0.59318-1.3841 1.3469-2.6937 2.0203-4.0406 4.9734-9.9469-1.1185 2.5167 4.0406-9.0914 0.61158-1.3761 1.4916-2.6306 2.0203-4.0406 0.48747-1.2999 0.67344-2.6937 1.0102-4.0406 0.67344-1.3469 1.4271-2.6565 2.0203-4.0406 1.7411-4.0626-0.002-2.018 2.0203-4.0406" stroke="#000" stroke-width="1px" fill="none"/>
 </g>
</svg>
