<?xml version="1.0" encoding="UTF-8"?>
<!-- Created with Inkscape (http://www.inkscape.org/) -->
<svg width="15.603" height="17.824" version="1.1" xmlns="http://www.w3.org/2000/svg" xmlns:cc="http://creativecommons.org/ns#" xmlns:dc="http://purl.org/dc/elements/1.1/" xmlns:rdf="http://www.w3.org/1999/02/22-rdf-syntax-ns#">
 <defs>
  <clipPath id="clipPath3427-4">
   <path d="m354.29 31.514h55.205v12.705h-55.205z"/>
  </clipPath>
 </defs>
 <metadata>
  <rdf:RDF>
   <cc:Work rdf:about="">
    <dc:format>image/svg+xml</dc:format>
    <dc:type rdf:resource="http://purl.org/dc/dcmitype/StillImage"/>
    <dc:title/>
   </cc:Work>
  </rdf:RDF>
 </metadata>
 <g transform="translate(-391.85 -561.13)">
  <g transform="matrix(1.25 0 0 -1.25 -104.84 617.35)">
   <g clip-path="url(#clipPath3427-4)">
    <path d="m403.12 44.173s1.497-0.992 1.754-3.72c0 0 0.506-6.552-2.884-7.836 0 0 0.304-0.056 0.645-0.041 0 0 4.192 2.644 2.269 7.777 0 0-0.575 1.791-1.784 3.82"/>
    <path d="m405.31 39.698s-0.781 1.208 0.211 2.204c0 0 0.347 0.383 1.337 0.635 0 0 0.991 0.211 1.527 1.348 0 0 1.109-1.55 0.427-3.59 0 0-0.338-0.919-1.042-1.338-0.532-0.316-1.338-0.416-2.18 0.409 0 0 2.547 1.396 2.643 2.578 0 0-0.783-1.759-2.923-2.246" fill="#f49d22"/>
    <path d="m405.31 39.698s-0.781 1.208 0.211 2.204c0 0 0.347 0.383 1.337 0.635 0 0 0.991 0.211 1.527 1.348 0 0 1.109-1.55 0.427-3.59 0 0-0.338-0.919-1.042-1.338-0.532-0.316-1.338-0.416-2.18 0.409 0 0 2.547 1.396 2.643 2.578 0 0-0.783-1.759-2.923-2.246"/>
    <path d="m405.96 36.032c0-0.628-0.15-1.214-0.45-1.756-0.3-0.543-0.704-0.963-1.215-1.258-0.51-0.295-1.07-0.443-1.68-0.443-0.611 0-1.171 0.148-1.682 0.443-0.51 0.295-0.915 0.715-1.215 1.258-0.299 0.542-0.45 1.128-0.45 1.756 0 0.974 0.329 1.805 0.986 2.491 0.658 0.687 1.445 1.031 2.361 1.031 0.434 0 0.841-0.08 1.22-0.237 0.037 0.397 0.177 0.768 0.331 1.07-0.476 0.172-0.991 0.26-1.547 0.26-1.324 0-2.419-0.487-3.286-1.461-0.788-0.884-1.181-1.927-1.181-3.13 0-1.213 0.416-2.274 1.248-3.182 0.832-0.907 1.905-1.361 3.219-1.361 1.306 0 2.376 0.454 3.209 1.361 0.832 0.908 1.248 1.969 1.248 3.182 0 0.65-0.115 1.251-0.342 1.807-0.382-0.235-0.746-0.358-1.046-0.421 0.18-0.43 0.272-0.9 0.272-1.41"/>
   </g>
  </g>
 </g>
</svg>
