<svg width="15.603" height="17.824" xmlns="http://www.w3.org/2000/svg"><defs><clipPath id="a"><path d="M354.29 31.514h55.205v12.705H354.29z"/></clipPath></defs><g clip-path="url(#a)" transform="matrix(1.25 0 0 -1.25 -496.69 56.22)"><path d="M403.12 44.173s1.497-.992 1.754-3.72c0 0 .506-6.552-2.884-7.836 0 0 .304-.056.645-.041 0 0 4.192 2.644 2.269 7.777 0 0-.575 1.791-1.784 3.82"/><path d="M405.31 39.698s-.781 1.208.211 2.204c0 0 .347.383 1.337.635 0 0 .991.211 1.527 1.348 0 0 1.109-1.55.427-3.59 0 0-.338-.919-1.042-1.338-.532-.316-1.338-.416-2.18.409 0 0 2.547 1.396 2.643 2.578 0 0-.783-1.759-2.923-2.246" fill="#f49d22"/><path d="M405.31 39.698s-.781 1.208.211 2.204c0 0 .347.383 1.337.635 0 0 .991.211 1.527 1.348 0 0 1.109-1.55.427-3.59 0 0-.338-.919-1.042-1.338-.532-.316-1.338-.416-2.18.409 0 0 2.547 1.396 2.643 2.578 0 0-.783-1.759-2.923-2.246M405.96 36.032a3.57 3.57 0 00-.45-1.756 3.207 3.207 0 00-1.215-1.258 3.296 3.296 0 00-1.68-.443c-.611 0-1.171.148-1.682.443-.51.295-.915.715-1.215 1.258a3.58 3.58 0 00-.45 1.756c0 .974.329 1.805.986 2.491.658.687 1.445 1.031 2.361 1.031.434 0 .841-.08 1.22-.237.037.397.177.768.331 1.07-.476.172-.991.26-1.547.26-1.324 0-2.419-.487-3.286-1.461-.788-.884-1.181-1.927-1.181-3.13 0-1.213.416-2.274 1.248-3.182.832-.907 1.905-1.361 3.219-1.361 1.306 0 2.376.454 3.209 1.361.832.908 1.248 1.969 1.248 3.182a4.73 4.73 0 01-.342 1.807 3.283 3.283 0 00-1.046-.421c.18-.43.272-.9.272-1.41"/></g></svg>